<mxfile host="Electron" modified="2025-04-24T09:35:21.341Z" agent="Mozilla/5.0 (Windows NT 10.0; Win64; x64) AppleWebKit/537.36 (KHTML, like Gecko) draw.io/24.1.0 Chrome/120.0.6099.109 Electron/28.1.0 Safari/537.36" etag="m0rQtw3IHOdu_bYKAR3E" version="24.1.0" type="device">
  <diagram name="Trang-1" id="Dtj0XGkErO1E7HZldPVw">
    <mxGraphModel dx="1105" dy="654" grid="1" gridSize="10" guides="1" tooltips="1" connect="1" arrows="1" fold="1" page="1" pageScale="1" pageWidth="1600" pageHeight="900" math="0" shadow="0">
      <root>
        <mxCell id="0" />
        <mxCell id="1" parent="0" />
        <mxCell id="pHAm6_JXvGiYdU6Yx38u-1" value="&lt;div style=&quot;font-size: 16px;&quot;&gt;&lt;br&gt;&lt;/div&gt;" style="shape=ext;double=1;rounded=0;whiteSpace=wrap;html=1;" parent="1" vertex="1">
          <mxGeometry x="560" y="400" width="200" height="280" as="geometry" />
        </mxCell>
        <mxCell id="pHAm6_JXvGiYdU6Yx38u-3" value="" style="shape=ext;double=1;rounded=0;whiteSpace=wrap;html=1;" parent="1" vertex="1">
          <mxGeometry x="200" y="400" width="200" height="280" as="geometry" />
        </mxCell>
        <mxCell id="pHAm6_JXvGiYdU6Yx38u-4" value="&lt;font style=&quot;font-size: 17px;&quot; face=&quot;Times New Roman&quot;&gt;KHỐI CẢM BIẾN&lt;/font&gt;" style="text;strokeColor=none;fillColor=none;html=1;fontSize=24;fontStyle=1;verticalAlign=middle;align=center;" parent="1" vertex="1">
          <mxGeometry x="225" y="410" width="150" height="40" as="geometry" />
        </mxCell>
        <mxCell id="pHAm6_JXvGiYdU6Yx38u-5" value="&lt;font style=&quot;font-size: 17px;&quot; face=&quot;Times New Roman&quot;&gt;KHỐI VI ĐIỀU KHIỂN&lt;/font&gt;" style="text;strokeColor=none;fillColor=none;html=1;fontSize=24;fontStyle=1;verticalAlign=middle;align=center;" parent="1" vertex="1">
          <mxGeometry x="572.5" y="410" width="175" height="40" as="geometry" />
        </mxCell>
        <mxCell id="pHAm6_JXvGiYdU6Yx38u-6" value="&lt;font style=&quot;font-size: 17px;&quot; face=&quot;Times New Roman&quot;&gt;DHT11&lt;/font&gt;&lt;div&gt;&lt;font style=&quot;font-size: 17px;&quot; face=&quot;Times New Roman&quot;&gt;MQ-2&lt;/font&gt;&lt;/div&gt;" style="text;strokeColor=none;fillColor=none;html=1;fontSize=24;fontStyle=1;verticalAlign=middle;align=center;" parent="1" vertex="1">
          <mxGeometry x="225" y="520" width="150" height="60" as="geometry" />
        </mxCell>
        <mxCell id="pHAm6_JXvGiYdU6Yx38u-7" value="&lt;font face=&quot;Times New Roman&quot;&gt;&lt;span style=&quot;font-size: 17px;&quot;&gt;ESP32&lt;/span&gt;&lt;/font&gt;" style="text;strokeColor=none;fillColor=none;html=1;fontSize=24;fontStyle=1;verticalAlign=middle;align=center;" parent="1" vertex="1">
          <mxGeometry x="585" y="520" width="150" height="60" as="geometry" />
        </mxCell>
        <mxCell id="pHAm6_JXvGiYdU6Yx38u-8" value="" style="shape=singleArrow;whiteSpace=wrap;html=1;" parent="1" vertex="1">
          <mxGeometry x="400" y="520" width="160" height="60" as="geometry" />
        </mxCell>
        <mxCell id="g_E2S4J-VVxHQSNIvMPv-1" value="" style="shape=ext;double=1;rounded=0;whiteSpace=wrap;html=1;" parent="1" vertex="1">
          <mxGeometry x="560" y="240" width="200" height="80" as="geometry" />
        </mxCell>
        <mxCell id="g_E2S4J-VVxHQSNIvMPv-2" value="&lt;div style=&quot;font-size: 17px;&quot;&gt;&lt;font face=&quot;Times New Roman&quot;&gt;Firebase&amp;nbsp;&lt;/font&gt;&lt;/div&gt;" style="text;strokeColor=none;fillColor=none;html=1;fontSize=24;fontStyle=1;verticalAlign=middle;align=center;" parent="1" vertex="1">
          <mxGeometry x="590" y="260" width="140" height="40" as="geometry" />
        </mxCell>
        <mxCell id="g_E2S4J-VVxHQSNIvMPv-3" value="" style="shape=doubleArrow;whiteSpace=wrap;html=1;direction=south;" parent="1" vertex="1">
          <mxGeometry x="630" y="320" width="60" height="80" as="geometry" />
        </mxCell>
        <mxCell id="g_E2S4J-VVxHQSNIvMPv-4" value="" style="shape=ext;double=1;rounded=0;whiteSpace=wrap;html=1;" parent="1" vertex="1">
          <mxGeometry x="860" y="240" width="200" height="80" as="geometry" />
        </mxCell>
        <mxCell id="g_E2S4J-VVxHQSNIvMPv-5" value="&lt;div style=&quot;font-size: 17px;&quot;&gt;&lt;font face=&quot;Times New Roman&quot;&gt;Dashboard&lt;/font&gt;&lt;/div&gt;" style="text;strokeColor=none;fillColor=none;html=1;fontSize=24;fontStyle=1;verticalAlign=middle;align=center;" parent="1" vertex="1">
          <mxGeometry x="890" y="260" width="140" height="40" as="geometry" />
        </mxCell>
        <mxCell id="g_E2S4J-VVxHQSNIvMPv-6" value="&lt;div style=&quot;font-size: 16px;&quot;&gt;&lt;br&gt;&lt;/div&gt;" style="shape=ext;double=1;rounded=0;whiteSpace=wrap;html=1;" parent="1" vertex="1">
          <mxGeometry x="920" y="400" width="200" height="280" as="geometry" />
        </mxCell>
        <mxCell id="g_E2S4J-VVxHQSNIvMPv-7" value="&lt;font style=&quot;font-size: 17px;&quot; face=&quot;Times New Roman&quot;&gt;KHỐI THIẾT BỊ&lt;/font&gt;" style="text;strokeColor=none;fillColor=none;html=1;fontSize=24;fontStyle=1;verticalAlign=middle;align=center;" parent="1" vertex="1">
          <mxGeometry x="932.5" y="410" width="175" height="40" as="geometry" />
        </mxCell>
        <mxCell id="g_E2S4J-VVxHQSNIvMPv-8" value="&lt;div&gt;&lt;font style=&quot;font-size: 17px;&quot; face=&quot;Times New Roman&quot;&gt;LED 1 (Đèn)&lt;/font&gt;&lt;/div&gt;" style="text;strokeColor=none;fillColor=none;html=1;fontSize=24;fontStyle=1;verticalAlign=middle;align=center;" parent="1" vertex="1">
          <mxGeometry x="945" y="460" width="150" height="60" as="geometry" />
        </mxCell>
        <mxCell id="g_E2S4J-VVxHQSNIvMPv-9" value="" style="shape=singleArrow;whiteSpace=wrap;html=1;" parent="1" vertex="1">
          <mxGeometry x="760" y="520" width="160" height="60" as="geometry" />
        </mxCell>
        <mxCell id="g_E2S4J-VVxHQSNIvMPv-10" value="" style="shape=doubleArrow;whiteSpace=wrap;html=1;" parent="1" vertex="1">
          <mxGeometry x="760" y="250" width="100" height="60" as="geometry" />
        </mxCell>
        <mxCell id="g_E2S4J-VVxHQSNIvMPv-11" value="&lt;div&gt;&lt;font style=&quot;font-size: 17px;&quot; face=&quot;Times New Roman&quot;&gt;LED 2 (Quạt)&lt;/font&gt;&lt;/div&gt;" style="text;strokeColor=none;fillColor=none;html=1;fontSize=24;fontStyle=1;verticalAlign=middle;align=center;" parent="1" vertex="1">
          <mxGeometry x="945" y="490" width="150" height="60" as="geometry" />
        </mxCell>
        <mxCell id="g_E2S4J-VVxHQSNIvMPv-12" value="&lt;div&gt;&lt;font style=&quot;font-size: 17px;&quot; face=&quot;Times New Roman&quot;&gt;LED 3 (Lọc không khí)&lt;/font&gt;&lt;/div&gt;" style="text;strokeColor=none;fillColor=none;html=1;fontSize=24;fontStyle=1;verticalAlign=middle;align=center;" parent="1" vertex="1">
          <mxGeometry x="945" y="520" width="150" height="60" as="geometry" />
        </mxCell>
        <mxCell id="g_E2S4J-VVxHQSNIvMPv-13" value="&lt;div&gt;&lt;font style=&quot;font-size: 17px;&quot; face=&quot;Times New Roman&quot;&gt;LED 5 (Gas)&lt;/font&gt;&lt;/div&gt;" style="text;strokeColor=none;fillColor=none;html=1;fontSize=24;fontStyle=1;verticalAlign=middle;align=center;" parent="1" vertex="1">
          <mxGeometry x="945" y="580" width="150" height="60" as="geometry" />
        </mxCell>
        <mxCell id="g_E2S4J-VVxHQSNIvMPv-14" value="&lt;div&gt;&lt;font style=&quot;font-size: 17px;&quot; face=&quot;Times New Roman&quot;&gt;LED 4 (Máy bơm)&lt;/font&gt;&lt;/div&gt;" style="text;strokeColor=none;fillColor=none;html=1;fontSize=24;fontStyle=1;verticalAlign=middle;align=center;" parent="1" vertex="1">
          <mxGeometry x="945" y="550" width="150" height="60" as="geometry" />
        </mxCell>
        <mxCell id="g_E2S4J-VVxHQSNIvMPv-15" value="&lt;div&gt;&lt;font style=&quot;font-size: 17px;&quot; face=&quot;Times New Roman&quot;&gt;LED 6 (TV)&lt;/font&gt;&lt;/div&gt;" style="text;strokeColor=none;fillColor=none;html=1;fontSize=24;fontStyle=1;verticalAlign=middle;align=center;" parent="1" vertex="1">
          <mxGeometry x="945" y="610" width="150" height="60" as="geometry" />
        </mxCell>
        <mxCell id="g_E2S4J-VVxHQSNIvMPv-16" value="&lt;div style=&quot;font-size: 16px;&quot;&gt;&lt;br&gt;&lt;/div&gt;" style="shape=ext;double=1;rounded=0;whiteSpace=wrap;html=1;fillColor=#dae8fc;strokeColor=#6c8ebf;" parent="1" vertex="1">
          <mxGeometry x="560" y="1210" width="200" height="280" as="geometry" />
        </mxCell>
        <mxCell id="g_E2S4J-VVxHQSNIvMPv-17" value="" style="shape=ext;double=1;rounded=0;whiteSpace=wrap;html=1;fillColor=#ffcc99;strokeColor=#36393d;" parent="1" vertex="1">
          <mxGeometry x="200" y="1210" width="200" height="280" as="geometry" />
        </mxCell>
        <mxCell id="g_E2S4J-VVxHQSNIvMPv-18" value="&lt;font style=&quot;font-size: 17px;&quot; face=&quot;Times New Roman&quot;&gt;KHỐI CẢM BIẾN&lt;/font&gt;" style="text;strokeColor=none;fillColor=none;html=1;fontSize=24;fontStyle=1;verticalAlign=middle;align=center;" parent="1" vertex="1">
          <mxGeometry x="225" y="1220" width="150" height="40" as="geometry" />
        </mxCell>
        <mxCell id="g_E2S4J-VVxHQSNIvMPv-19" value="&lt;font style=&quot;font-size: 17px;&quot; face=&quot;Times New Roman&quot;&gt;KHỐI VI ĐIỀU KHIỂN&lt;/font&gt;" style="text;strokeColor=none;fillColor=none;html=1;fontSize=24;fontStyle=1;verticalAlign=middle;align=center;" parent="1" vertex="1">
          <mxGeometry x="572.5" y="1220" width="175" height="40" as="geometry" />
        </mxCell>
        <mxCell id="g_E2S4J-VVxHQSNIvMPv-20" value="&lt;font style=&quot;font-size: 17px;&quot; face=&quot;Times New Roman&quot;&gt;DHT11&lt;/font&gt;&lt;div&gt;&lt;font style=&quot;font-size: 17px;&quot; face=&quot;Times New Roman&quot;&gt;MQ-135&lt;/font&gt;&lt;/div&gt;" style="text;strokeColor=none;fillColor=none;html=1;fontSize=24;fontStyle=1;verticalAlign=middle;align=center;" parent="1" vertex="1">
          <mxGeometry x="225" y="1330" width="150" height="60" as="geometry" />
        </mxCell>
        <mxCell id="g_E2S4J-VVxHQSNIvMPv-21" value="&lt;font face=&quot;Times New Roman&quot;&gt;&lt;span style=&quot;font-size: 17px;&quot;&gt;ESP32&lt;/span&gt;&lt;/font&gt;" style="text;strokeColor=none;fillColor=none;html=1;fontSize=24;fontStyle=1;verticalAlign=middle;align=center;" parent="1" vertex="1">
          <mxGeometry x="585" y="1330" width="150" height="60" as="geometry" />
        </mxCell>
        <mxCell id="g_E2S4J-VVxHQSNIvMPv-22" value="" style="shape=singleArrow;whiteSpace=wrap;html=1;fillColor=#cce5ff;strokeColor=#36393d;" parent="1" vertex="1">
          <mxGeometry x="400" y="1330" width="160" height="60" as="geometry" />
        </mxCell>
        <mxCell id="g_E2S4J-VVxHQSNIvMPv-23" value="" style="shape=ext;double=1;rounded=0;whiteSpace=wrap;html=1;fillColor=#cdeb8b;strokeColor=#36393d;" parent="1" vertex="1">
          <mxGeometry x="560" y="920" width="200" height="80" as="geometry" />
        </mxCell>
        <mxCell id="g_E2S4J-VVxHQSNIvMPv-24" value="&lt;div style=&quot;font-size: 17px;&quot;&gt;&lt;font face=&quot;Times New Roman&quot;&gt;Firebase Cloud&amp;nbsp;&lt;/font&gt;&lt;/div&gt;" style="text;strokeColor=none;fillColor=none;html=1;fontSize=24;fontStyle=1;verticalAlign=middle;align=center;" parent="1" vertex="1">
          <mxGeometry x="590" y="940" width="140" height="40" as="geometry" />
        </mxCell>
        <mxCell id="g_E2S4J-VVxHQSNIvMPv-25" value="" style="shape=doubleArrow;whiteSpace=wrap;html=1;direction=south;fillColor=#ffff88;strokeColor=#36393d;" parent="1" vertex="1">
          <mxGeometry x="640" y="1130" width="40" height="80" as="geometry" />
        </mxCell>
        <mxCell id="g_E2S4J-VVxHQSNIvMPv-26" value="" style="shape=ext;double=1;rounded=0;whiteSpace=wrap;html=1;fillColor=#fff2cc;strokeColor=#d6b656;" parent="1" vertex="1">
          <mxGeometry x="860" y="920" width="200" height="80" as="geometry" />
        </mxCell>
        <mxCell id="g_E2S4J-VVxHQSNIvMPv-27" value="&lt;div style=&quot;font-size: 17px;&quot;&gt;&lt;font face=&quot;Times New Roman&quot;&gt;Dashboard Web&lt;/font&gt;&lt;/div&gt;" style="text;strokeColor=none;fillColor=none;html=1;fontSize=24;fontStyle=1;verticalAlign=middle;align=center;" parent="1" vertex="1">
          <mxGeometry x="890" y="940" width="140" height="40" as="geometry" />
        </mxCell>
        <mxCell id="g_E2S4J-VVxHQSNIvMPv-28" value="&lt;div style=&quot;font-size: 16px;&quot;&gt;&lt;br&gt;&lt;/div&gt;" style="shape=ext;double=1;rounded=0;whiteSpace=wrap;html=1;fillColor=#f5f5f5;fontColor=#333333;strokeColor=#666666;" parent="1" vertex="1">
          <mxGeometry x="920" y="1210" width="200" height="280" as="geometry" />
        </mxCell>
        <mxCell id="g_E2S4J-VVxHQSNIvMPv-29" value="&lt;font style=&quot;font-size: 17px;&quot; face=&quot;Times New Roman&quot;&gt;KHỐI THIẾT BỊ&lt;/font&gt;" style="text;strokeColor=none;fillColor=none;html=1;fontSize=24;fontStyle=1;verticalAlign=middle;align=center;" parent="1" vertex="1">
          <mxGeometry x="932.5" y="1220" width="175" height="40" as="geometry" />
        </mxCell>
        <mxCell id="g_E2S4J-VVxHQSNIvMPv-30" value="&lt;div&gt;&lt;font style=&quot;font-size: 17px;&quot; face=&quot;Times New Roman&quot;&gt;Máy bơm (Pump)&lt;/font&gt;&lt;/div&gt;" style="text;strokeColor=none;fillColor=none;html=1;fontSize=24;fontStyle=1;verticalAlign=middle;align=center;" parent="1" vertex="1">
          <mxGeometry x="945" y="1270" width="150" height="60" as="geometry" />
        </mxCell>
        <mxCell id="g_E2S4J-VVxHQSNIvMPv-32" value="" style="shape=doubleArrow;whiteSpace=wrap;html=1;fillColor=#ffff88;strokeColor=#36393d;" parent="1" vertex="1">
          <mxGeometry x="760" y="940" width="100" height="40" as="geometry" />
        </mxCell>
        <mxCell id="g_E2S4J-VVxHQSNIvMPv-33" value="&lt;div&gt;&lt;font style=&quot;font-size: 17px;&quot; face=&quot;Times New Roman&quot;&gt;Quạt (Fan)&lt;/font&gt;&lt;/div&gt;" style="text;strokeColor=none;fillColor=none;html=1;fontSize=24;fontStyle=1;verticalAlign=middle;align=center;" parent="1" vertex="1">
          <mxGeometry x="945" y="1330" width="150" height="60" as="geometry" />
        </mxCell>
        <mxCell id="g_E2S4J-VVxHQSNIvMPv-34" value="&lt;div&gt;&lt;font style=&quot;font-size: 17px;&quot; face=&quot;Times New Roman&quot;&gt;Máy sưởi (Heater)&amp;nbsp;&lt;/font&gt;&lt;/div&gt;" style="text;strokeColor=none;fillColor=none;html=1;fontSize=24;fontStyle=1;verticalAlign=middle;align=center;" parent="1" vertex="1">
          <mxGeometry x="945" y="1390" width="150" height="60" as="geometry" />
        </mxCell>
        <mxCell id="uwlBzXQwoX3kB4sgmh-r-1" value="" style="shape=doubleArrow;whiteSpace=wrap;html=1;fillColor=#ffff88;strokeColor=#36393d;" parent="1" vertex="1">
          <mxGeometry x="760" y="1330" width="160" height="60" as="geometry" />
        </mxCell>
        <mxCell id="uwlBzXQwoX3kB4sgmh-r-2" value="" style="shape=ext;double=1;rounded=0;whiteSpace=wrap;html=1;" parent="1" vertex="1">
          <mxGeometry x="600" y="1050" width="120" height="80" as="geometry" />
        </mxCell>
        <mxCell id="uwlBzXQwoX3kB4sgmh-r-3" value="&lt;font style=&quot;font-size: 17px;&quot; face=&quot;Times New Roman&quot;&gt;Module Wifi&lt;/font&gt;" style="text;strokeColor=none;fillColor=none;html=1;fontSize=24;fontStyle=1;verticalAlign=middle;align=center;" parent="1" vertex="1">
          <mxGeometry x="610" y="1070" width="100" height="40" as="geometry" />
        </mxCell>
        <mxCell id="uwlBzXQwoX3kB4sgmh-r-4" value="" style="shape=doubleArrow;whiteSpace=wrap;html=1;direction=south;fillColor=#ffff88;strokeColor=#36393d;" parent="1" vertex="1">
          <mxGeometry x="645" y="1000" width="30" height="50" as="geometry" />
        </mxCell>
      </root>
    </mxGraphModel>
  </diagram>
</mxfile>
